<?xml version="1.0" encoding="UTF-8" standalone="no"?>
<!-- Created with Inkscape (http://www.inkscape.org/) -->

<svg
   xmlns:dc="http://purl.org/dc/elements/1.1/"
   xmlns:cc="http://creativecommons.org/ns#"
   xmlns:rdf="http://www.w3.org/1999/02/22-rdf-syntax-ns#"
   xmlns:svg="http://www.w3.org/2000/svg"
   xmlns="http://www.w3.org/2000/svg"
   xmlns:sodipodi="http://sodipodi.sourceforge.net/DTD/sodipodi-0.dtd"
   xmlns:inkscape="http://www.inkscape.org/namespaces/inkscape"
   width="210mm"
   height="297mm"
   viewBox="0 0 210 297"
   version="1.1"
   id="svg961"
   inkscape:version="0.92.3 (2405546, 2018-03-11)"
   sodipodi:docname="CAD.svg">
  <defs
     id="defs955" />
  <sodipodi:namedview
     id="base"
     pagecolor="#ffffff"
     bordercolor="#666666"
     borderopacity="1.0"
     inkscape:pageopacity="0.0"
     inkscape:pageshadow="2"
     inkscape:zoom="0.25"
     inkscape:cx="184.0308"
     inkscape:cy="1405.444"
     inkscape:document-units="mm"
     inkscape:current-layer="layer1"
     showgrid="false"
     inkscape:window-width="2436"
     inkscape:window-height="1215"
     inkscape:window-x="120"
     inkscape:window-y="0"
     inkscape:window-maximized="0"
     inkscape:lockguides="true" />
  <metadata
     id="metadata958">
    <rdf:RDF>
      <cc:Work
         rdf:about="">
        <dc:format>image/svg+xml</dc:format>
        <dc:type
           rdf:resource="http://purl.org/dc/dcmitype/StillImage" />
        <dc:title />
      </cc:Work>
    </rdf:RDF>
  </metadata>
  <g
     inkscape:label="Layer 1"
     inkscape:groupmode="layer"
     id="layer1"
     style="display:inline">
    <rect
       style="display:inline;opacity:0.75;fill:none;fill-opacity:1;stroke:#ff0000;stroke-width:1;stroke-linecap:butt;stroke-linejoin:round;stroke-miterlimit:4;stroke-dasharray:none;stroke-dashoffset:0;stroke-opacity:1;paint-order:normal"
       id="rect913"
       width="1147.6978"
       height="469.75"
       x="-447.90723"
       y="-94.508362"
       ry="0" />
    <path
       style="display:inline;fill:none;stroke:#ff0000;stroke-width:1;stroke-linecap:butt;stroke-linejoin:miter;stroke-miterlimit:4;stroke-dasharray:none;stroke-opacity:0.59926471"
       d="m 137.1124,39.62656 c -15.26934,0.12865 -21.09999,20.63813 -25.91276,36.29899 -17.509147,28.51099 -21.106417,65.48272 -20.853747,92.21894"
       id="path870"
       inkscape:connector-curvature="0"
       sodipodi:nodetypes="ccc" />
    <path
       style="display:inline;fill:none;stroke:#ff0000;stroke-width:1;stroke-linecap:butt;stroke-linejoin:miter;stroke-miterlimit:4;stroke-dasharray:none;stroke-opacity:0.55514706"
       d="m 90.345893,168.14449 c 0.15859,2.37148 0.17185,4.33561 1.50797,5.91689 1.6665,1.97229 10.744167,5.30932 19.754817,6.87404 9.01063,1.56472 16.74749,1.86838 25.51539,1.85721"
       id="path872"
       inkscape:connector-curvature="0"
       sodipodi:nodetypes="cszc" />
    <path
       style="display:inline;fill:none;stroke:#ff0000;stroke-width:1;stroke-linecap:butt;stroke-linejoin:miter;stroke-miterlimit:4;stroke-dasharray:none;stroke-opacity:0.49632353"
       d="m 15.071803,-31.19404 10.31875,-17.41792"
       id="path874"
       inkscape:connector-curvature="0"
       sodipodi:nodetypes="cc" />
    <path
       style="display:inline;fill:none;stroke:#ff0000;stroke-width:1;stroke-linecap:butt;stroke-linejoin:miter;stroke-miterlimit:4;stroke-dasharray:none;stroke-opacity:0.49632353"
       d="m 21.527613,-49.14113 -47.61635,17.70939"
       id="path876"
       inkscape:connector-curvature="0"
       sodipodi:nodetypes="cc" />
    <path
       style="display:inline;fill:none;stroke:#ff0000;stroke-width:1.0054642;stroke-linecap:butt;stroke-linejoin:miter;stroke-miterlimit:4;stroke-dasharray:none;stroke-opacity:0.49632353"
       d="m -26.088737,-31.43174 41.19184,0.21311 0.0465,29.56175 h -41.37779 z"
       id="path878"
       inkscape:connector-curvature="0"
       sodipodi:nodetypes="ccccc" />
    <path
       style="display:inline;fill:none;stroke:#ff0000;stroke-width:1;stroke-linecap:butt;stroke-linejoin:miter;stroke-miterlimit:4;stroke-dasharray:none;stroke-opacity:0.49632353"
       d="m 15.124693,-1.68183 10.31875,17.443"
       id="path884"
       inkscape:connector-curvature="0"
       sodipodi:nodetypes="cc" />
    <path
       style="display:inline;fill:none;stroke:#ff0000;stroke-width:1;stroke-linecap:butt;stroke-linejoin:miter;stroke-miterlimit:4;stroke-dasharray:none;stroke-opacity:0.49632353"
       d="M 21.368863,16.02575 -26.228197,-1.65688"
       id="path886"
       inkscape:connector-curvature="0"
       sodipodi:nodetypes="cc" />
    <path
       style="display:inline;fill:none;stroke:#ff0000;stroke-width:1;stroke-linecap:butt;stroke-linejoin:miter;stroke-miterlimit:4;stroke-dasharray:none;stroke-opacity:0.54779412"
       d="m -26.369807,206.4471 -0.098,30.24116"
       id="path889"
       inkscape:connector-curvature="0"
       sodipodi:nodetypes="cc" />
    <text
       xml:space="preserve"
       style="font-style:normal;font-weight:normal;font-size:10.58333302px;line-height:1.25;font-family:sans-serif;letter-spacing:0px;word-spacing:0px;display:inline;fill:#000000;fill-opacity:1;stroke:none;stroke-width:0.26458332"
       x="41.212612"
       y="59.046997"
       id="text898"><tspan
         sodipodi:role="line"
         id="tspan896"
         x="41.212612"
         y="59.046997"
         style="font-size:5.64444447px;stroke-width:0.26458332">F33</tspan></text>
    <path
       style="display:inline;fill:none;stroke:#ff0000;stroke-width:1;stroke-linecap:butt;stroke-linejoin:miter;stroke-miterlimit:4;stroke-dasharray:none;stroke-opacity:0.53676471"
       d="m -152.54174,-63.8255 c 85.592683,7.27604 276.35727,23.8125 284.82393,24.47396 8.46667,0.66145 43.01914,4.58709 51.32917,5.95312 8.31006,1.36604 56.22396,10.71563 55.82708,16.80104"
       id="path900"
       inkscape:connector-curvature="0"
       sodipodi:nodetypes="cszc" />
    <path
       style="display:inline;fill:none;stroke:#ff0000;stroke-width:1;stroke-linecap:butt;stroke-linejoin:miter;stroke-miterlimit:4;stroke-dasharray:none;stroke-opacity:0.63970588"
       d="m 299.92219,155.09076 c 0.15875,-15.18709 2.1167,-42.01584 3.3867,-50.58834 1.27,-8.5725 3.75705,-16.24542 6.40289,-20.26709 2.64586,-4.02166 9.63086,-9.57791 17.99166,-9.47208"
       id="path906"
       inkscape:connector-curvature="0" />
    <path
       style="display:inline;fill:none;stroke:#ff0000;stroke-width:1;stroke-linecap:butt;stroke-linejoin:miter;stroke-miterlimit:4;stroke-dasharray:none;stroke-opacity:0.56985294"
       d="m 299.92219,155.09076 c -0.16301,2.02767 0.32655,4.03257 1.64045,5.29166 4.23333,3.86291 9.10867,5.29038 12.54125,6.19125 3.43259,0.90087 9.31333,1.69334 13.59958,1.74625"
       id="path909"
       inkscape:connector-curvature="0"
       sodipodi:nodetypes="cczc" />
    <path
       style="display:inline;fill:none;stroke:#0000ff;stroke-width:1;stroke-linecap:butt;stroke-linejoin:miter;stroke-miterlimit:4;stroke-dasharray:none;stroke-opacity:0.51470588"
       d="m 327.70344,74.76325 3e-5,93.55667"
       id="path911"
       inkscape:connector-curvature="0" />
    <path
       style="display:inline;opacity:1;fill:none;stroke:#ff0000;stroke-width:1;stroke-linecap:butt;stroke-linejoin:miter;stroke-miterlimit:4;stroke-dasharray:none;stroke-opacity:0.45588235"
       d="m -221.05516,60.28841 c -12.59416,9.6573 -27.34377,21.42407 -38.00784,34.95359 -10.66408,13.52951 -13.37072,29.36268 -13.09687,41.61896 0.27384,12.25628 7.72392,27.99501 18.78541,39.47581 10.55458,10.95471 27.27854,18.89128 45.79937,18.86482"
       id="path915"
       inkscape:connector-curvature="0"
       sodipodi:nodetypes="czzsc" />
    <path
       style="display:inline;fill:none;fill-opacity:1;stroke:#fe2323;stroke-width:0.60000002;stroke-linecap:butt;stroke-linejoin:miter;stroke-miterlimit:4;stroke-dasharray:none;stroke-opacity:1"
       d="m -267.43512,233.24598 c 11.17483,-7.95526 20.39572,-10.25136 25.59649,-11.66543 5.20078,-1.41406 19.41604,-2.66941 30.21542,-3.51896 10.79938,-0.84957 18.303,-1.39226 60.32435,-3.95049 149.3908933,-9.09484 5.76289,-0.47268 159.4802533,-9.52"
       id="path818"
       inkscape:connector-curvature="0"
       sodipodi:nodetypes="czzsc" />
    <path
       style="display:inline;fill:#ff0000;stroke:#ff0000;stroke-width:0.5;stroke-linecap:butt;stroke-linejoin:miter;stroke-miterlimit:4;stroke-dasharray:none;stroke-opacity:1"
       d="m -26.369807,206.4471 50.31291,28.25604"
       id="path855-3"
       inkscape:connector-curvature="0"
       sodipodi:nodetypes="cc" />
    <path
       style="display:inline;fill:#ff0000;stroke:#ff0000;stroke-width:0.60000002;stroke-linecap:butt;stroke-linejoin:miter;stroke-miterlimit:4;stroke-dasharray:none;stroke-opacity:1"
       d="m 26.377293,234.59731 -10.74208,-49.8475"
       id="path855-6"
       inkscape:connector-curvature="0"
       sodipodi:nodetypes="cc" />
    <path
       style="display:inline;fill:#ff0000;stroke:#ff0000;stroke-width:1;stroke-linecap:butt;stroke-linejoin:miter;stroke-miterlimit:4;stroke-dasharray:none;stroke-opacity:0.53308835"
       d="M 237.21597,218.19386 23.943103,234.70314"
       id="path855-6-7"
       inkscape:connector-curvature="0"
       sodipodi:nodetypes="cc" />
    <path
       style="display:inline;fill:none;stroke:#ff0000;stroke-width:0.60000002;stroke-linecap:butt;stroke-linejoin:miter;stroke-miterlimit:4;stroke-dasharray:none;stroke-opacity:0.78676471"
       d="m -151.41057,214.21355 0.47625,133.69398"
       id="path910"
       inkscape:connector-curvature="0"
       sodipodi:nodetypes="cc" />
    <path
       style="display:inline;fill:none;stroke:#ff0000;stroke-width:1;stroke-linecap:butt;stroke-linejoin:miter;stroke-miterlimit:4;stroke-dasharray:none;stroke-opacity:0.5625"
       d="m 15.635213,184.74981 c 18.01307,-8.35988 54.9766,0.57711 112.545937,11.90699 57.56934,11.32988 66.34202,13.37604 109.03482,21.53706 42.69277,8.16104 81.44901,13.46343 94.95893,14.97544 13.50994,1.51202 44.51609,4.62431 57.54688,2.11667 13.0308,-2.50764 22.35729,-11.77396 32.54375,-25.26771 8.20197,-10.86493 38.23874,-54.26682 46.0375,-64.29376 6.48231,-8.33437 16.98677,-17.30444 39.15836,-17.3302 22.17155,-0.0258 34.13434,13.51646 37.30622,16.66875 3.17188,3.15228 7.01148,12.43541 9.92188,27.25208 2.9104,14.81664 7.9375,36.77709 9.2604,43.65625 1.3229,6.87914 4.1011,20.90209 3.9688,35.18959 -0.1323,14.2875 -8.2359,21.97296 -14.6844,28.17812 -6.44849,6.20517 -15.63424,9.72833 -34.92501,14.81667 -19.29078,5.08833 -31.19314,8.7916 -57.41459,11.50937 -137.84791,14.2875 -250.41675,27.77115 -373.459367,34.925 -123.0426,7.15386 -157.02214,4.86932 -213.251133,7.65699 -95.3324,0.5451 0,0 -96.39073,0.28051 -3.91889,0.0114 -16.67008,-1.70598 -21.21959,-2.98979 -4.54951,-1.28381 -15.18293,-4.44838 -23.9304,-10.83"
       id="path908"
       inkscape:connector-curvature="0"
       sodipodi:nodetypes="czzzzsszzzczzzszcszc" />
    <path
       style="display:inline;fill:none;stroke:#ff0000;stroke-width:1;stroke-linecap:butt;stroke-linejoin:miter;stroke-miterlimit:4;stroke-dasharray:none;stroke-opacity:0.58823529"
       d="m 468.44487,303.19713 c 7.3025,-7.40834 28.54854,-15.05479 46.69896,-9.33979"
       id="path927"
       inkscape:connector-curvature="0"
       sodipodi:nodetypes="cc" />
    <path
       style="display:inline;fill:none;stroke:#ff0000;stroke-width:0.58688766;stroke-linecap:butt;stroke-linejoin:miter;stroke-miterlimit:4;stroke-dasharray:none;stroke-opacity:0.78676471"
       d="m -267.43513,233.24603 0.0786,101.46181"
       id="path910-5"
       inkscape:connector-curvature="0"
       sodipodi:nodetypes="cc" />
    <path
       sodipodi:nodetypes="ccsszcc"
       inkscape:connector-curvature="0"
       id="path869"
       d="m -268.08523,-67.33634 -0.0435,13.12333 c 0,0 -4.04373,-0.0138 -7.34872,0 -1.00075,0.004 -1.0435,-1.0265 -1.0436,-1.74625 -2.7e-4,-1.87901 0.73922,-3.70416 1.86979,-5.23875 1.13058,-1.53458 3.00037,-3.96875 6.56602,-6.13833 z"
       style="display:inline;fill:none;fill-opacity:0.41409691;stroke:#ff0000;stroke-width:1;stroke-linecap:butt;stroke-linejoin:miter;stroke-miterlimit:4;stroke-dasharray:none;stroke-opacity:0.51470588" />
    <path
       style="display:inline;fill:none;fill-opacity:0.41409691;stroke:#ff0000;stroke-width:0.60000002;stroke-linecap:butt;stroke-linejoin:miter;stroke-miterlimit:4;stroke-dasharray:none;stroke-opacity:0.51470588"
       d="m -282.37273,230.58459 -0.0529,13.12333 c 0,0 -4.92096,-0.0138 -8.94292,0 -1.21785,0.004 -1.26987,-1.0265 -1.27,-1.74625 -2.7e-4,-1.87902 0.89959,-3.70417 2.27542,-5.23875 1.37584,-1.53458 3.65125,-3.96875 7.99042,-6.13833 z"
       id="path880"
       inkscape:connector-curvature="0"
       sodipodi:nodetypes="ccsszcc" />
    <path
       sodipodi:nodetypes="ccsszcc"
       inkscape:connector-curvature="0"
       id="path882"
       d="m -282.37279,337.6005 -0.0529,-13.12336 c 0,0 -4.92095,0.0138 -8.94291,0 -1.21786,-0.004 -1.26987,1.02651 -1.27,1.74625 -2.7e-4,1.87902 0.89959,3.70417 2.27541,5.23875 1.37585,1.53461 3.65125,3.96878 7.99043,6.13836 z"
       style="display:inline;fill:none;fill-opacity:0.41409691;stroke:#ff0000;stroke-width:0.60000002;stroke-linecap:butt;stroke-linejoin:miter;stroke-miterlimit:4;stroke-dasharray:none;stroke-opacity:0.51470588" />
    <rect
       y="-16.529175"
       x="-292.67291"
       height="10.050092"
       width="879.04419"
       id="rect892"
       style="display:inline;opacity:0.75;fill:none;fill-opacity:0.41409691;stroke:#0000ff;stroke-width:0.70505846;stroke-linecap:butt;stroke-linejoin:round;stroke-miterlimit:4;stroke-dasharray:none;stroke-dashoffset:0;stroke-opacity:0.98529412;paint-order:normal" />
    <rect
       style="display:inline;opacity:0.75;fill:none;fill-opacity:0.41409691;stroke:#0000ff;stroke-width:0.75266653;stroke-linecap:butt;stroke-linejoin:round;stroke-miterlimit:4;stroke-dasharray:none;stroke-dashoffset:0;stroke-opacity:0.98529412;paint-order:normal"
       id="rect886"
       width="1001.7648"
       height="10.050092"
       x="-425.97687"
       y="130.04996" />
    <circle
       style="display:inline;opacity:0.75;fill:none;fill-opacity:0.41409691;stroke:#00ffff;stroke-width:0.30000001;stroke-linecap:butt;stroke-linejoin:round;stroke-miterlimit:4;stroke-dasharray:none;stroke-dashoffset:0;stroke-opacity:0.98529412;paint-order:normal"
       id="path888"
       cx="-362.48865"
       cy="129.98178"
       r="13.229167" />
    <ellipse
       cy="129.98178"
       cx="-362.48865"
       id="circle890"
       style="display:inline;opacity:0.75;fill:none;fill-opacity:0.41409691;stroke:#00a5ff;stroke-width:0.30000001;stroke-linecap:butt;stroke-linejoin:round;stroke-miterlimit:4;stroke-dasharray:none;stroke-dashoffset:0;stroke-opacity:0.98529412;paint-order:normal"
       rx="53.710415"
       ry="53.445839" />
    <path
       sodipodi:nodetypes="cc"
       inkscape:connector-curvature="0"
       id="path873"
       d="M -26.467807,345.69032 V 236.68826"
       style="display:inline;opacity:0.75;fill:none;fill-opacity:1;stroke:#ff0000;stroke-width:1;stroke-linecap:butt;stroke-linejoin:round;stroke-miterlimit:4;stroke-dasharray:none;stroke-dashoffset:0;stroke-opacity:0.49657539;paint-order:normal" />
    <path
       style="display:inline;opacity:0.75;fill:none;fill-opacity:1;stroke:#0000ff;stroke-width:1;stroke-linecap:butt;stroke-linejoin:round;stroke-miterlimit:4;stroke-dasharray:none;stroke-dashoffset:0;stroke-opacity:1;paint-order:normal"
       d="M 14.213393,178.00055 V 67.67556"
       id="path875"
       inkscape:connector-curvature="0"
       sodipodi:nodetypes="cc" />
    <path
       sodipodi:nodetypes="cc"
       inkscape:connector-curvature="0"
       id="path877"
       d="M -54.049137,157.8921 V 47.56721"
       style="display:inline;opacity:0.75;fill:none;fill-opacity:1;stroke:#0000ff;stroke-width:1;stroke-linecap:butt;stroke-linejoin:round;stroke-miterlimit:4;stroke-dasharray:none;stroke-dashoffset:0;stroke-opacity:1;paint-order:normal" />
    <path
       style="display:inline;opacity:0.75;fill:none;fill-opacity:1;stroke:#0000ff;stroke-width:1;stroke-linecap:butt;stroke-linejoin:round;stroke-miterlimit:4;stroke-dasharray:none;stroke-dashoffset:0;stroke-opacity:1;paint-order:normal"
       d="M -129.72002,155.11399 V 82.49221"
       id="path879"
       inkscape:connector-curvature="0"
       sodipodi:nodetypes="cc" />
    <path
       sodipodi:nodetypes="cc"
       inkscape:connector-curvature="0"
       id="path881"
       d="M -207.70757,198.37336 V 60.00263"
       style="display:inline;opacity:0.75;fill:none;fill-opacity:1;stroke:#0000ff;stroke-width:1;stroke-linecap:butt;stroke-linejoin:round;stroke-miterlimit:4;stroke-dasharray:none;stroke-dashoffset:0;stroke-opacity:1;paint-order:normal" />
    <path
       style="display:inline;opacity:0.75;fill:none;fill-opacity:1;stroke:#ff0000;stroke-width:1;stroke-linecap:butt;stroke-linejoin:round;stroke-miterlimit:4;stroke-dasharray:none;stroke-dashoffset:0;stroke-opacity:1;paint-order:normal"
       d="M -284.96594,198.90253 V 60.5318"
       id="path883"
       inkscape:connector-curvature="0"
       sodipodi:nodetypes="cc" />
    <path
       sodipodi:nodetypes="cc"
       inkscape:connector-curvature="0"
       id="path885"
       d="M -362.55352,198.90253 V 60.5318"
       style="display:inline;opacity:0.75;fill:none;fill-opacity:1;stroke:#ff0000;stroke-width:1;stroke-linecap:butt;stroke-linejoin:round;stroke-miterlimit:4;stroke-dasharray:none;stroke-dashoffset:0;stroke-opacity:1;paint-order:normal" />
    <path
       sodipodi:nodetypes="cc"
       inkscape:connector-curvature="0"
       id="path887"
       d="M 191.35513,185.41198 V 35.92241"
       style="display:inline;opacity:0.75;fill:none;fill-opacity:1;stroke:#0000ff;stroke-width:1.00100005;stroke-linecap:butt;stroke-linejoin:round;stroke-miterlimit:4;stroke-dasharray:none;stroke-dashoffset:0;stroke-opacity:1;paint-order:normal" />
    <path
       sodipodi:nodetypes="cc"
       inkscape:connector-curvature="0"
       id="path893"
       d="M 286.60513,185.41198 V 35.92241"
       style="display:inline;opacity:0.75;fill:none;fill-opacity:1;stroke:#0000ff;stroke-width:1.00100005;stroke-linecap:butt;stroke-linejoin:round;stroke-miterlimit:4;stroke-dasharray:none;stroke-dashoffset:0;stroke-opacity:1;paint-order:normal" />
    <path
       style="display:inline;fill:#ff0000;stroke:#ff0000;stroke-width:0.60000002;stroke-linecap:butt;stroke-linejoin:miter;stroke-miterlimit:4;stroke-dasharray:none;stroke-opacity:1"
       d="m -26.369807,206.4471 42.00502,-21.69729"
       id="path855"
       inkscape:connector-curvature="0"
       sodipodi:nodetypes="cc" />
    <path
       style="display:inline;fill:none;fill-opacity:0.41409691;stroke:#ff0000;stroke-width:1;stroke-linecap:butt;stroke-linejoin:miter;stroke-miterlimit:4;stroke-dasharray:none;stroke-opacity:0.51470588"
       d="m -268.08528,34.38783 -0.0435,-13.12333 c 0,0 -4.04373,0.0138 -7.34872,0 -1.00075,-0.004 -1.0435,1.02651 -1.0436,1.74625 -2.7e-4,1.87901 0.73922,3.70417 1.86979,5.23875 1.13058,1.53458 3.00037,3.96875 6.56602,6.13833 z"
       id="path852"
       inkscape:connector-curvature="0"
       sodipodi:nodetypes="ccsszcc" />
    <rect
       style="display:inline;opacity:0.75;fill:none;fill-opacity:1;stroke:#000080;stroke-width:1.00100005;stroke-linecap:butt;stroke-linejoin:bevel;stroke-miterlimit:4;stroke-dasharray:none;stroke-dashoffset:0;stroke-opacity:1;paint-order:normal"
       id="rect814"
       width="898.88397"
       height="154.01575"
       x="-331.28595"
       y="-283.98343"
       transform="scale(1,-1)" />
    <rect
       style="display:inline;opacity:0.75;fill:none;fill-opacity:1;stroke:#001cfa;stroke-width:0.89992982;stroke-linecap:butt;stroke-linejoin:bevel;stroke-miterlimit:4;stroke-dasharray:none;stroke-dashoffset:0;stroke-opacity:1;paint-order:normal"
       id="rect814-3"
       width="898.87799"
       height="66.831802"
       x="-331.2829"
       y="-360.86655"
       transform="scale(1,-1)" />
    <path
       style="display:inline;fill:none;stroke:#ff0000;stroke-width:1;stroke-linecap:butt;stroke-linejoin:miter;stroke-miterlimit:4;stroke-dasharray:none;stroke-opacity:1"
       d="M 154.24261,321.14326 546.09053,293.89118"
       id="path850"
       inkscape:connector-curvature="0"
       sodipodi:nodetypes="cc" />
    <path
       sodipodi:nodetypes="cc"
       inkscape:connector-curvature="0"
       id="path861"
       d="m -268.16468,-69.19664 0.0794,105.03952"
       style="display:inline;fill:none;stroke:#ff0000;stroke-width:0.60000002;stroke-linecap:butt;stroke-linejoin:miter;stroke-miterlimit:4;stroke-dasharray:none;stroke-opacity:0.78676471" />
    <path
       style="display:inline;fill:none;stroke:#ff0000;stroke-width:1;stroke-linecap:butt;stroke-linejoin:miter;stroke-miterlimit:4;stroke-dasharray:none;stroke-opacity:0.64338235"
       d="m 59.415973,38.93867 0.0413,83.97875 -56.5736797,-0.17957 C 6.7979433,102.50573 12.795333,84.10323 23.018063,69.37627 l 21.29986,-30.6848 z"
       id="path894"
       inkscape:connector-curvature="0"
       sodipodi:nodetypes="cccscc" />
    <path
       style="display:inline;fill:none;stroke:#ff0000;stroke-width:1;stroke-linecap:butt;stroke-linejoin:miter;stroke-miterlimit:4;stroke-dasharray:none;stroke-opacity:0.50735294"
       d="m -207.70756,60.00263 -13.3476,0.28578"
       id="path913"
       inkscape:connector-curvature="0"
       sodipodi:nodetypes="cc" />
    <path
       sodipodi:nodetypes="czszc"
       inkscape:connector-curvature="0"
       id="path1066"
       d="m -268.08528,33.24997 c 10.08063,7.75219 26.84031,12.39126 48.20707,14.28077 21.36676,1.88952 53.04979,2.13842 67.9979,1.93146 58.681993,-0.81247 116.140633,-3.64066 166.926293,-8.98508 50.78566,-5.34441 549.171707,-55.49796 549.171707,-55.49796"
       style="display:inline;fill:none;stroke:#ff0000;stroke-width:1;stroke-linecap:butt;stroke-linejoin:miter;stroke-miterlimit:4;stroke-dasharray:none;stroke-opacity:0.58088235" />
    <path
       style="display:inline;fill:none;stroke:#ff00ff;stroke-width:1;stroke-linecap:butt;stroke-linejoin:miter;stroke-miterlimit:4;stroke-dasharray:none;stroke-opacity:1"
       d="m 154.24261,321.14326 c -32.01458,-6.87917 -71.172917,-11.90625 -104.774997,-16.66875 -33.60206,-4.7625 -82.93545,-11.31618 -108.74372,-11.37711 -25.80831,-0.0609 -72.454853,4.26932 -87.047923,10.84794 -14.59309,6.57863 -22.70834,14.15688 -22.48961,19.84375 0.21873,5.68688 4.49792,8.06977 12.17083,12.43542 7.67292,4.36562 18.52084,7.67292 29.63334,10.31875"
       id="path1125"
       inkscape:connector-curvature="0"
       sodipodi:nodetypes="cszzzzc" />
    <path
       sodipodi:nodetypes="cc"
       inkscape:connector-curvature="0"
       id="path897"
       d="m -152.4689,-82.11987 0.47625,133.69389"
       style="display:inline;fill:none;stroke:#ff0000;stroke-width:0.60000002;stroke-linecap:butt;stroke-linejoin:miter;stroke-miterlimit:4;stroke-dasharray:none;stroke-opacity:0.78676471" />
    <ellipse
       style="display:inline;opacity:0.75;fill:none;fill-opacity:1;stroke:#0000ff;stroke-width:0.5;stroke-linecap:butt;stroke-linejoin:round;stroke-miterlimit:4;stroke-dasharray:2.00000002, 0.50000001;stroke-dashoffset:0;stroke-opacity:1;paint-order:normal"
       id="path899"
       cx="-16.597351"
       cy="273.98547"
       rx="52.599258"
       ry="18.203428"
       transform="rotate(90)" />
    <ellipse
       transform="rotate(90)"
       id="ellipse901"
       style="display:inline;opacity:0.75;fill:none;fill-opacity:1;stroke:#0000ff;stroke-width:0.5;stroke-linecap:butt;stroke-linejoin:round;stroke-miterlimit:4;stroke-dasharray:2.00000002, 0.50000001;stroke-dashoffset:0;stroke-opacity:1;paint-order:normal"
       ry="18.203428"
       rx="49.53672"
       cy="268.69385"
       cx="-16.597351" />
    <path
       style="display:inline;fill:none;stroke:#ff0000;stroke-width:1;stroke-linecap:butt;stroke-linejoin:miter;stroke-miterlimit:4;stroke-dasharray:none;stroke-opacity:0.58088235"
       d="m -268.08528,-66.47872 c 10.08063,-7.7522 26.84031,-12.39126 48.20707,-14.28078 21.36676,-1.88952 53.04979,-2.13842 67.9979,-1.93146 58.681993,0.81248 116.140633,3.64066 166.926293,8.98508 50.78566,5.34442 549.171707,55.49796 549.171707,55.49796"
       id="path905"
       inkscape:connector-curvature="0"
       sodipodi:nodetypes="czszc" />
    <path
       sodipodi:nodetypes="cszc"
       inkscape:connector-curvature="0"
       id="path912"
       d="m -152.54174,31.09113 c 85.592683,-7.27604 276.35727,-23.8125 284.82393,-24.47396 8.46667,-0.66146 43.01914,-4.58709 51.32917,-5.95312 8.31006,-1.36604 56.22396,-10.71563 55.82708,-16.80104"
       style="display:inline;fill:none;stroke:#ff0000;stroke-width:1;stroke-linecap:butt;stroke-linejoin:miter;stroke-miterlimit:4;stroke-dasharray:none;stroke-opacity:0.53676471" />
    <path
       style="display:inline;fill:none;stroke:#ff0000;stroke-width:0.60000002;stroke-linecap:butt;stroke-linejoin:miter;stroke-miterlimit:4;stroke-dasharray:none;stroke-opacity:0.78676471"
       d="m -268.16468,-69.19664 0.0794,105.03952"
       id="path918"
       inkscape:connector-curvature="0"
       sodipodi:nodetypes="cc" />
    <ellipse
       transform="rotate(90)"
       ry="18.203428"
       rx="52.599258"
       cy="273.98547"
       cx="-16.597351"
       id="ellipse920"
       style="display:inline;opacity:0.75;fill:none;fill-opacity:1;stroke:#0000ff;stroke-width:0.5;stroke-linecap:butt;stroke-linejoin:round;stroke-miterlimit:4;stroke-dasharray:2.00000002, 0.50000001;stroke-dashoffset:0;stroke-opacity:1;paint-order:normal" />
    <g
       style="display:inline"
       id="g934"
       transform="translate(189.16761,159.93913)">
      <path
         sodipodi:nodetypes="ccsszcc"
         inkscape:connector-curvature="0"
         id="path928"
         d="m -456.72368,73.09125 -0.0435,13.123334 c 0,0 -4.04373,-0.01378 -7.34872,0 -1.00075,0.0042 -1.0435,-1.026505 -1.0436,-1.746249 -2.8e-4,-1.879014 0.73922,-3.704167 1.86979,-5.23875 1.13058,-1.534585 3.00037,-3.968751 6.56602,-6.138335 z"
         style="fill:none;fill-opacity:0.41409691;stroke:#ff0000;stroke-width:1;stroke-linecap:butt;stroke-linejoin:miter;stroke-miterlimit:4;stroke-dasharray:none;stroke-opacity:0.51470588" />
      <path
         style="fill:none;fill-opacity:0.41409691;stroke:#ff0000;stroke-width:1;stroke-linecap:butt;stroke-linejoin:miter;stroke-miterlimit:4;stroke-dasharray:none;stroke-opacity:0.51470588"
         d="m -456.72373,174.81547 -0.0435,-13.12335 c 0,0 -4.04373,0.0138 -7.34872,0 -1.00075,-0.004 -1.0435,1.02651 -1.0436,1.74625 -2.8e-4,1.87902 0.73922,3.70417 1.86979,5.23876 1.13058,1.53458 3.00037,3.96875 6.56602,6.13834 z"
         id="path930"
         inkscape:connector-curvature="0"
         sodipodi:nodetypes="ccsszcc" />
    </g>
    <path
       style="display:inline;fill:none;stroke:#0000ff;stroke-width:1;stroke-linecap:butt;stroke-linejoin:miter;stroke-miterlimit:4;stroke-dasharray:none;stroke-opacity:0.54779412"
       d="m 44.317893,38.69147 30.24114,0.098"
       id="path903"
       inkscape:connector-curvature="0"
       sodipodi:nodetypes="cc" />
    <path
       style="display:inline;fill:none;stroke:#0000ff;stroke-width:1;stroke-linecap:butt;stroke-linejoin:miter;stroke-miterlimit:4;stroke-dasharray:none;stroke-opacity:0.49632353"
       d="m 23.018033,69.37627 72.63879,0.13947"
       id="path916"
       inkscape:connector-curvature="0"
       sodipodi:nodetypes="cc" />
    <path
       style="display:inline;fill:#0000ff;stroke:#0000ff;stroke-width:0.96344417;stroke-linecap:butt;stroke-linejoin:miter;stroke-miterlimit:4;stroke-dasharray:none;stroke-opacity:0.49632353"
       d="M 115.7913,122.87731 2.8835633,122.73785"
       id="path917"
       inkscape:connector-curvature="0"
       sodipodi:nodetypes="cc" />
    <path
       inkscape:connector-curvature="0"
       id="path929"
       d="m 340.66805,152.44494 c 0.15875,-15.18709 0.14256,-22.03104 0.74084,-34.44876 0.59827,-12.41771 0.8202,-19.97605 3.09562,-26.74938 2.27542,-6.77334 10.82143,-11.01587 19.18227,-10.91004"
       style="display:inline;fill:none;stroke:#ff0000;stroke-width:1;stroke-linecap:butt;stroke-linejoin:miter;stroke-miterlimit:4;stroke-dasharray:none;stroke-opacity:0.63970588"
       sodipodi:nodetypes="czzc" />
    <path
       sodipodi:nodetypes="cczc"
       inkscape:connector-curvature="0"
       id="path931"
       d="m 340.66805,152.44494 c -0.16303,2.02767 1.33197,4.19132 2.64586,5.45041 1.85209,2.27541 7.15076,4.23205 9.10167,4.7625 1.9509,0.53045 6.90885,1.67118 11.1951,1.72409"
       style="display:inline;fill:none;stroke:#ff0000;stroke-width:1;stroke-linecap:butt;stroke-linejoin:miter;stroke-miterlimit:4;stroke-dasharray:none;stroke-opacity:0.56985294" />
    <path
       sodipodi:nodetypes="ccc"
       style="display:inline;fill:none;stroke:#ff0000;stroke-width:1;stroke-linecap:butt;stroke-linejoin:miter;stroke-miterlimit:4;stroke-dasharray:none;stroke-opacity:0.63970588"
       d="m 408.61311,147.52369 0.8202,-49.66231 c -0.52919,-17.51542 6.84062,-28.68775 15.20145,-29.37566"
       id="path937"
       inkscape:connector-curvature="0" />
    <path
       style="display:inline;fill:none;stroke:#ff0000;stroke-width:1;stroke-linecap:butt;stroke-linejoin:miter;stroke-miterlimit:4;stroke-dasharray:none;stroke-opacity:0.56985294"
       d="m 408.61311,147.52369 c -0.16304,2.02767 0.93151,3.68518 2.8046,5.39749 1.87307,1.71231 4.30726,3.66154 12.90051,3.73263"
       id="path939"
       inkscape:connector-curvature="0"
       sodipodi:nodetypes="czc" />
    <path
       inkscape:connector-curvature="0"
       id="path926"
       d="m 363.61068,164.38194 0.0761,-84.04518"
       style="display:inline;fill:none;stroke:#0000ff;stroke-width:1;stroke-linecap:butt;stroke-linejoin:miter;stroke-miterlimit:4;stroke-dasharray:none;stroke-opacity:0.50367647"
       sodipodi:nodetypes="cc" />
    <path
       sodipodi:nodetypes="cc"
       style="display:inline;fill:none;stroke:#0000ff;stroke-width:1;stroke-linecap:butt;stroke-linejoin:miter;stroke-miterlimit:4;stroke-dasharray:none;stroke-opacity:0.50367647"
       d="m 424.31822,156.65381 0.31654,-88.16809"
       id="path935"
       inkscape:connector-curvature="0" />
    <path
       style="display:inline;fill:none;stroke:#ff0000;stroke-width:1.00654101;stroke-linecap:butt;stroke-linejoin:miter;stroke-miterlimit:4;stroke-dasharray:none;stroke-opacity:0.50367647"
       d="M 203.66106,331.1588 203.51374,211.60565"
       id="path1139"
       inkscape:connector-curvature="0" />
    <path
       inkscape:connector-curvature="0"
       id="path1141"
       d="M 240.69677,176.62231 240.96136,58.61818"
       style="display:inline;fill:none;stroke:#ff0000;stroke-width:1;stroke-linecap:butt;stroke-linejoin:miter;stroke-miterlimit:4;stroke-dasharray:none;stroke-opacity:0.50367647" />
    <path
       style="display:inline;fill:none;stroke:#ff0000;stroke-width:1;stroke-linecap:butt;stroke-linejoin:miter;stroke-miterlimit:4;stroke-dasharray:none;stroke-opacity:0.56617647"
       d="m 240.96136,58.61818 c -8.26979,0.1907 -13.71873,4.57423 -16.89521,12.30862 -7.28459,9.57927 -11.36015,22.48609 -14.12875,34.44875 -2.76857,11.96265 -5.82083,31.08854 -5.95312,56.09166"
       id="path1143"
       inkscape:connector-curvature="0"
       sodipodi:nodetypes="cczc" />
    <path
       style="display:inline;fill:none;stroke:#ff0000;stroke-width:1;stroke-linecap:butt;stroke-linejoin:miter;stroke-miterlimit:4;stroke-dasharray:none;stroke-opacity:0.57720588"
       d="m 203.98428,161.46721 c -0.10584,3.88938 3.03011,6.46667 5.45041,7.91105 3.28084,1.95792 16.59253,6.86811 31.26208,7.24405"
       id="path1145"
       inkscape:connector-curvature="0"
       sodipodi:nodetypes="csc" />
    <path
       inkscape:connector-curvature="0"
       id="path1147"
       d="m 110.23576,338.78848 0.0429,-145.70461"
       style="display:inline;fill:none;stroke:#ff0000;stroke-width:1;stroke-linecap:butt;stroke-linejoin:miter;stroke-miterlimit:4;stroke-dasharray:none;stroke-opacity:0.50367647"
       sodipodi:nodetypes="cc" />
    <path
       sodipodi:nodetypes="cc"
       style="display:inline;fill:none;stroke:#ff0000;stroke-width:1;stroke-linecap:butt;stroke-linejoin:miter;stroke-miterlimit:4;stroke-dasharray:none;stroke-opacity:0.50367647"
       d="M 136.31865,183.03068 137.1124,39.62656"
       id="path1149"
       inkscape:connector-curvature="0" />
    <path
       inkscape:connector-curvature="0"
       id="path922"
       d="m 297.11764,322.46641 0.26461,-93.92729"
       style="display:inline;fill:none;stroke:#ff0000;stroke-width:1.00282884;stroke-linecap:butt;stroke-linejoin:miter;stroke-miterlimit:4;stroke-dasharray:none;stroke-opacity:0.50367647" />
    <path
       style="display:inline;fill:none;stroke:#ff0000;stroke-width:1;stroke-linecap:butt;stroke-linejoin:miter;stroke-miterlimit:4;stroke-dasharray:none;stroke-opacity:0.50367647"
       d="m 343.68433,318.14016 0.26458,-84.30935"
       id="path924"
       inkscape:connector-curvature="0" />
    <path
       style="display:inline;opacity:0.75;fill:none;fill-opacity:1;stroke:#0000ff;stroke-width:1;stroke-linecap:butt;stroke-linejoin:round;stroke-miterlimit:4;stroke-dasharray:none;stroke-dashoffset:0;stroke-opacity:0.49657539;paint-order:normal"
       d="M 59.257223,179.00274 V 70.00066"
       id="path954"
       inkscape:connector-curvature="0"
       sodipodi:nodetypes="cc" />
    <path
       sodipodi:nodetypes="czc"
       inkscape:connector-curvature="0"
       id="path956"
       d="m 2.8835633,122.73785 c -2.29231997,12.92577 -3.62772997,30.80614 4.53221,37.73894 8.1599597,6.93279 24.1558497,18.00795 51.8414497,18.52595"
       style="display:inline;fill:none;stroke:#ff0000;stroke-width:1;stroke-linecap:butt;stroke-linejoin:miter;stroke-miterlimit:4;stroke-dasharray:none;stroke-opacity:0.55514706" />
    <path
       inkscape:connector-curvature="0"
       id="path958"
       d="m 414.59295,310.20385 0.26406,-91.98465"
       style="display:inline;fill:none;stroke:#ff0000;stroke-width:1;stroke-linecap:butt;stroke-linejoin:miter;stroke-miterlimit:4;stroke-dasharray:none;stroke-opacity:0.50367647" />
    <path
       style="display:inline;fill:none;stroke:#ff0000;stroke-width:1;stroke-linecap:butt;stroke-linejoin:miter;stroke-miterlimit:4;stroke-dasharray:none;stroke-opacity:0.50367647"
       d="m 425.17631,156.74543 0.26403,-91.98464"
       id="path960"
       inkscape:connector-curvature="0" />
  </g>
</svg>
